<svg width="158" height="158" viewBox="0 0 158 158" fill="none" xmlns="http://www.w3.org/2000/svg">
<path d="M38.0616 26.1421V132.996H56.0497V77.6484C103.404 148.758 125.676 160.058 157 156.392C132.654 154.297 120.358 150.164 86.4433 97.3779C83.497 96.1557 74.503 74.331 55.2744 45.5224C51.7014 41.4995 50.4735 39.0694 46.9006 35.0465C44.1752 30.8031 42.1257 28.9732 38.0616 26.1421Z" fill="url(#paint0_linear_37_370)"/>
<path d="M25.9662 10.6029C17.7786 6.13179 12.5931 3.90014 1 1L14.0258 2.39678L27.3618 6.76172L39.4573 12.3488L50.9324 20.0311L62.0974 29.4594L72.6422 40.1099L81.171 50.2365L90.6302 63.3314L101.64 80.6165V38.8877H111.254V28.4118H119.163V135.091C106.534 119.554 99.8378 109.612 88.3042 90.5686L74.6581 66.9979C69.4166 58.2929 66.388 53.3364 59.9264 43.6018C54.6654 36.0849 51.2857 31.9436 44.1093 24.7453C37.3938 18.9997 33.5376 15.8337 25.9662 10.6029Z" fill="url(#paint1_linear_37_370)"/>
<path d="M97.4533 35.0465V22.3009H108.773V35.0465H97.4533Z" fill="url(#paint2_linear_37_370)"/>
<path d="M124.435 23.1739H114.666V12.3488H124.435V23.1739Z" fill="url(#paint3_linear_37_370)"/>
<path d="M108.773 8.1585V13.2218H112.805V8.1585H108.773Z" fill="url(#paint4_linear_37_370)"/>
<path d="M38.0616 26.1421V132.996H56.0497V77.6484C103.404 148.758 125.676 160.058 157 156.392C132.654 154.297 120.358 150.164 86.4433 97.3779C83.497 96.1557 74.503 74.331 55.2744 45.5224C51.7014 41.4995 50.4735 39.0694 46.9006 35.0465C44.1752 30.8031 42.1257 28.9732 38.0616 26.1421Z" stroke="black" stroke-opacity="0.2"/>
<path d="M25.9662 10.6029C17.7786 6.13179 12.5931 3.90014 1 1L14.0258 2.39678L27.3618 6.76172L39.4573 12.3488L50.9324 20.0311L62.0974 29.4594L72.6422 40.1099L81.171 50.2365L90.6302 63.3314L101.64 80.6165V38.8877H111.254V28.4118H119.163V135.091C106.534 119.554 99.8378 109.612 88.3042 90.5686L74.6581 66.9979C69.4166 58.2929 66.388 53.3364 59.9264 43.6018C54.6654 36.0849 51.2857 31.9436 44.1093 24.7453C37.3938 18.9997 33.5376 15.8337 25.9662 10.6029Z" stroke="black" stroke-opacity="0.2"/>
<path d="M97.4533 35.0465V22.3009H108.773V35.0465H97.4533Z" stroke="black" stroke-opacity="0.2"/>
<path d="M124.435 23.1739H114.666V12.3488H124.435V23.1739Z" stroke="black" stroke-opacity="0.2"/>
<path d="M108.773 8.1585V13.2218H112.805V8.1585H108.773Z" stroke="black" stroke-opacity="0.2"/>
<defs>
<linearGradient id="paint0_linear_37_370" x1="79" y1="1" x2="79" y2="157" gradientUnits="userSpaceOnUse">
<stop/>
<stop offset="1" stop-opacity="0"/>
</linearGradient>
<linearGradient id="paint1_linear_37_370" x1="79" y1="1" x2="79" y2="157" gradientUnits="userSpaceOnUse">
<stop/>
<stop offset="1" stop-opacity="0"/>
</linearGradient>
<linearGradient id="paint2_linear_37_370" x1="79" y1="1" x2="79" y2="157" gradientUnits="userSpaceOnUse">
<stop/>
<stop offset="1" stop-opacity="0"/>
</linearGradient>
<linearGradient id="paint3_linear_37_370" x1="79" y1="1" x2="79" y2="157" gradientUnits="userSpaceOnUse">
<stop/>
<stop offset="1" stop-opacity="0"/>
</linearGradient>
<linearGradient id="paint4_linear_37_370" x1="79" y1="1" x2="79" y2="157" gradientUnits="userSpaceOnUse">
<stop/>
<stop offset="1" stop-opacity="0"/>
</linearGradient>
</defs>
</svg>
